HIERARCHY
ROOT Hips
{
 OFFSET 0.000000 0.000000 0.000000
 CHANNELS 6 Xposition Yposition Zposition Yrotation Xrotation Zrotation
 JOINT Chest
 {
  OFFSET 0.000000 9.585900 0.002600
  CHANNELS 3 Yrotation Xrotation Zrotation
  JOINT Chest2
  {
   OFFSET 0.000000 9.601200 -0.005300
   CHANNELS 3 Yrotation Xrotation Zrotation
   JOINT Chest3
   {
    OFFSET 0.000000 9.561800 0.000000
    CHANNELS 3 Yrotation Xrotation Zrotation
    JOINT Chest4
    {
     OFFSET 0.000000 9.552100 0.000000
     CHANNELS 3 Yrotation Xrotation Zrotation
     JOINT Neck
     {
      OFFSET 0.000000 14.453000 0.000000
      CHANNELS 3 Yrotation Xrotation Zrotation
      JOINT Head
      {
       OFFSET 0.000000 8.936500 -0.011300
       CHANNELS 3 Yrotation Xrotation Zrotation
       End Site
       {
        OFFSET 0.000000 17.073600 -0.006000
       }
      }
     }
     JOINT RightCollar
     {
      OFFSET -2.921100 9.558500 0.000000
      CHANNELS 3 Yrotation Xrotation Zrotation
      JOINT RightShoulder
      {
       OFFSET -13.519700 0.000000 0.000000
       CHANNELS 3 Yrotation Xrotation Zrotation
       JOINT RightElbow
       {
        OFFSET 0.000000 -29.696600 0.000000
        CHANNELS 3 Yrotation Xrotation Zrotation
        JOINT RightWrist
        {
         OFFSET 0.000000 -24.004700 0.000000
         CHANNELS 3 Yrotation Xrotation Zrotation
         End Site
         {
          OFFSET 0.000000 -17.728500 0.000000
         }
        }
       }
      }
     }
     JOINT LeftCollar
     {
      OFFSET 2.921100 9.558500 0.000000
      CHANNELS 3 Yrotation Xrotation Zrotation
      JOINT LeftShoulder
      {
       OFFSET 13.519700 0.000000 0.000000
       CHANNELS 3 Yrotation Xrotation Zrotation
       JOINT LeftElbow
       {
        OFFSET 0.000000 -29.696600 0.000000
        CHANNELS 3 Yrotation Xrotation Zrotation
        JOINT LeftWrist
        {
         OFFSET 0.000000 -24.004700 0.000000
         CHANNELS 3 Yrotation Xrotation Zrotation
         End Site
         {
          OFFSET 0.000000 -17.728500 0.000000
         }
        }
       }
      }
     }
    }
   }
  }
 }
 JOINT RightHip
 {
  OFFSET -7.771700 -0.012900 -0.001300
  CHANNELS 3 Yrotation Xrotation Zrotation
  JOINT RightKnee
  {
   OFFSET 0.000000 -40.869800 0.001200
   CHANNELS 3 Yrotation Xrotation Zrotation
   JOINT RightAnkle
   {
    OFFSET 0.000000 -39.717900 0.002100
    CHANNELS 3 Yrotation Xrotation Zrotation
    JOINT RightToe
    {
     OFFSET 0.000000 -4.965400 11.033500
     CHANNELS 3 Yrotation Xrotation Zrotation
     End Site
     {
      OFFSET 0.000000 -1.423100 5.872300
     }
    }
   }
  }
 }
 JOINT LeftHip
 {
  OFFSET 7.771700 -0.012900 -0.001300
  CHANNELS 3 Yrotation Xrotation Zrotation
  JOINT LeftKnee
  {
   OFFSET 0.000000 -40.869800 0.001200
   CHANNELS 3 Yrotation Xrotation Zrotation
   JOINT LeftAnkle
   {
    OFFSET 0.000000 -39.717900 0.002100
    CHANNELS 3 Yrotation Xrotation Zrotation
    JOINT LeftToe
    {
     OFFSET 0.000000 -4.965400 11.033500
     CHANNELS 3 Yrotation Xrotation Zrotation
     End Site
     {
      OFFSET 0.000000 -1.423100 5.872300
     }
    }
   }
  }
 }
}
MOTION
Frames: 8
Frame Time: 0.008333
-6.363745 53.790579 30.994818 178.917607 -31.894194 -10.854642 0.204331 12.300400 4.561496 0.314742 7.271891 1.956170 0.439238 9.021863 2.441107 0.321832 7.192876 1.940957 6.275455 20.578259 2.614612 6.190730 -3.695399 1.378960 0.485368 4.285927 -1.776805 -16.595067 -6.456461 6.545437 17.668115 -73.631639 -3.419970 9.771469 -9.003681 -18.359484 -9.070353 3.569135 -3.512606 4.688308 -1.549296 -1.211117 -84.020248 -76.207880 88.648903 12.259057 -13.959767 0.835343 -16.904302 -33.703471 6.990503 22.417999 83.573753 18.311811 -0.675569 -14.940780 1.673642 -0.162202 0.915223 -0.064862 -15.266217 -45.732672 16.292322 173.407932 80.185400 169.356678 -1.739197 -16.818091 0.781812 -0.133976 -1.180934 -0.064777
-6.355565 53.843384 30.991909 178.893022 -31.869657 -10.841779 0.219724 12.326543 4.573608 0.311922 7.285448 1.954219 0.441370 9.043307 2.439938 0.323422 7.210012 1.940010 6.272117 20.541790 2.590582 6.191806 -3.737677 1.353342 0.504642 4.185153 -1.836866 -16.591307 -6.446345 6.587879 17.499196 -73.595515 -3.223766 9.773559 -9.003332 -18.360722 -9.067964 3.474620 -3.503708 4.670107 -1.524324 -1.193997 -84.149690 -76.159798 88.852222 12.299775 -14.106399 0.951005 -16.924236 -33.762245 7.008559 22.570919 83.631726 18.467964 -0.654090 -15.008785 1.651310 -0.166514 0.951842 -0.066919 -15.251415 -45.750020 16.321736 173.526721 80.192363 169.462507 -1.743561 -16.839456 0.794464 -0.129103 -1.170097 -0.059970
-6.342139 53.890030 30.988358 178.877229 -31.854791 -10.864695 0.228692 12.359477 4.614661 0.319230 7.268566 1.948086 0.442570 9.053244 2.439321 0.320176 7.290439 1.948257 6.271119 20.456547 2.560861 6.195062 -3.725467 1.333326 0.519851 4.064434 -1.877218 -16.518520 -6.432472 6.578293 17.249322 -73.581361 -2.996783 9.773369 -9.003996 -18.361745 -9.089460 3.396216 -3.478638 4.661445 -1.497206 -1.164531 -84.395986 -76.185462 89.166079 12.294530 -14.233132 1.059848 -16.990529 -33.795963 7.074062 22.815007 83.686277 18.694036 -0.625912 -15.099855 1.633395 -0.189683 1.008620 -0.077322 -15.283075 -45.757167 16.400780 173.668223 80.182994 169.592862 -1.748469 -16.863041 0.805620 -0.129313 -1.160128 -0.061060
-6.331358 53.931034 30.982529 178.878024 -31.853524 -10.877664 0.226750 12.407445 4.637658 0.323411 7.251426 1.941917 0.443961 9.062205 2.438701 0.315465 7.340954 1.955251 6.277934 20.464909 2.539477 6.208132 -3.753991 1.306438 0.534623 3.974574 -1.916189 -16.485200 -6.422474 6.579675 17.120040 -73.560078 -2.844315 9.769617 -9.004029 -18.368133 -9.148663 3.385495 -3.424642 4.705485 -1.544831 -1.195174 -84.618209 -76.153826 89.430055 12.331605 -14.305116 1.133851 -17.047870 -33.821810 7.116007 23.062121 83.746882 18.922060 -0.621669 -15.174662 1.615256 -0.192286 1.040413 -0.078647 -15.306421 -45.756892 16.457120 173.833022 80.170158 169.732818 -1.756404 -16.886279 0.830942 -0.133597 -1.150224 -0.063597
-6.320471 53.968370 30.974383 178.883143 -31.870985 -10.890605 0.224745 12.471981 4.661356 0.323169 7.265108 1.940819 0.443591 9.079512 2.437325 0.317902 7.309067 1.947374 6.293903 20.526123 2.535261 6.234594 -3.771557 1.279908 0.566881 3.930809 -1.973476 -16.494958 -6.406128 6.616162 17.121398 -73.538025 -2.798435 9.767104 -9.000709 -18.375191 -9.178906 3.379991 -3.395026 4.719796 -1.553647 -1.196085 -84.887821 -76.151369 89.730184 12.355712 -14.323664 1.175674 -17.092577 -33.831582 7.148047 23.372165 83.811444 19.222718 -0.648509 -15.251096 1.593165 -0.179327 1.058846 -0.075392 -15.333970 -45.730824 16.516780 174.070283 80.158451 169.934308 -1.774842 -16.935660 0.853980 -0.121452 -1.119450 -0.058408
-6.310497 53.998765 30.970864 178.877264 -31.859649 -10.890993 0.227321 12.503996 4.676242 0.321132 7.278904 1.940255 0.441316 9.096620 2.436670 0.302953 7.339555 1.950721 6.330461 20.515029 2.516282 6.277029 -3.757561 1.258422 0.616976 3.827549 -2.048460 -16.460025 -6.394181 6.627456 16.996813 -73.537980 -2.699306 9.791152 -8.990375 -18.343884 -9.188932 3.310663 -3.368587 4.737845 -1.566125 -1.193485 -85.145314 -76.188968 89.991604 12.366563 -14.334907 1.192044 -17.123978 -33.883602 7.190741 23.510514 83.890072 19.343857 -0.653371 -15.313236 1.588728 -0.178294 1.077013 -0.073309 -15.355617 -45.751401 16.573279 174.195992 80.136761 170.029278 -1.793083 -16.955793 0.882035 -0.124513 -1.110563 -0.059835
-6.316669 54.040920 30.937764 178.679718 -32.080482 -10.687912 0.412162 12.731306 4.589343 0.314226 7.291404 1.939348 0.416506 9.163184 2.442783 0.302303 7.321311 1.940865 6.383879 20.513237 2.502635 6.333700 -3.734164 1.240372 0.699986 3.724113 -2.163729 -16.448001 -6.372420 6.671033 17.052032 -73.514172 -2.726131 9.790679 -8.990627 -18.359647 -9.186963 3.240386 -3.345832 4.763547 -1.586954 -1.205020 -85.425504 -76.231287 90.249254 12.382031 -14.337458 1.177363 -16.838881 -33.786196 7.030426 23.825486 83.990969 19.636570 -0.656366 -15.417774 1.602679 -0.184306 1.117711 -0.075882 -14.934962 -45.398905 16.327385 174.164566 80.233948 169.971301 -1.884572 -17.554597 0.893706 -0.061783 -0.619128 -0.030660
-6.307942 54.065563 30.936150 178.690378 -32.059476 -10.691956 0.391312 12.782207 4.606251 0.314383 7.275309 1.931265 0.395910 9.192569 2.438870 0.307885 7.299441 1.932631 6.437957 20.551713 2.507615 6.402937 -3.704326 1.226137 0.743900 3.661087 -2.220063 -16.412081 -6.368066 6.667254 17.194272 -73.490023 -2.824966 9.786264 -8.987783 -18.370835 -9.176895 3.195230 -3.335184 4.762846 -1.593124 -1.156134 -85.768358 -76.333294 90.567900 12.398411 -14.303734 1.122734 -16.860511 -33.842895 7.042634 24.009287 84.058923 19.833511 -0.655069 -15.494385 1.592745 -0.181341 1.157276 -0.078565 -14.972198 -45.434571 16.373682 174.246394 80.209697 170.029062 -1.904351 -17.566501 0.915617 -0.065690 -0.612715 -0.031994
